<svg xmlns="http://www.w3.org/2000/svg" width="1440" height="1024" viewBox="0 0 1440 1024" preserveAspectRatio="xMidYMid slice">
<rect width="1440" height="1024" fill="#ffffff"/>
<g><polygon points="0.0,0.0 102.9,0.0 86.0,99.0" fill="#f5f7f9"/><polygon points="0.0,0.0 86.0,99.0 0.0,102.4" fill="#ffffff"/><polygon points="102.9,0.0 205.7,0.0 86.0,99.0" fill="#f2f4f7"/><polygon points="205.7,0.0 236.3,86.0 86.0,99.0" fill="#f8f9fb"/><polygon points="205.7,0.0 308.6,0.0 338.1,137.5" fill="#ffffff"/><polygon points="205.7,0.0 338.1,137.5 236.3,86.0" fill="#f2f4f7"/><polygon points="308.6,0.0 411.4,0.0 338.1,137.5" fill="#ffffff"/><polygon points="411.4,0.0 422.5,94.6 338.1,137.5" fill="#f8f9fb"/><polygon points="411.4,0.0 514.3,0.0 549.0,89.9" fill="#fafbfc"/><polygon points="411.4,0.0 549.0,89.9 422.5,94.6" fill="#eef1f4"/><polygon points="514.3,0.0 617.1,0.0 549.0,89.9" fill="#f8f9fb"/><polygon points="617.1,0.0 594.2,78.4 549.0,89.9" fill="#f8f9fb"/><polygon points="617.1,0.0 720.0,0.0 686.6,122.4" fill="#f5f7f9"/><polygon points="617.1,0.0 686.6,122.4 594.2,78.4" fill="#f5f7f9"/><polygon points="720.0,0.0 822.9,0.0 686.6,122.4" fill="#ffffff"/><polygon points="822.9,0.0 856.9,95.4 686.6,122.4" fill="#ffffff"/><polygon points="822.9,0.0 925.7,0.0 891.5,85.0" fill="#eef1f4"/><polygon points="822.9,0.0 891.5,85.0 856.9,95.4" fill="#f2f4f7"/><polygon points="925.7,0.0 1028.6,0.0 891.5,85.0" fill="#f5f7f9"/><polygon points="1028.6,0.0 1016.3,108.9 891.5,85.0" fill="#eef1f4"/><polygon points="1028.6,0.0 1131.4,0.0 1117.5,68.0" fill="#fafbfc"/><polygon points="1028.6,0.0 1117.5,68.0 1016.3,108.9" fill="#eef1f4"/><polygon points="1131.4,0.0 1234.3,0.0 1117.5,68.0" fill="#f8f9fb"/><polygon points="1234.3,0.0 1251.1,110.1 1117.5,68.0" fill="#ffffff"/><polygon points="1234.3,0.0 1337.1,0.0 1317.9,127.8" fill="#fafbfc"/><polygon points="1234.3,0.0 1317.9,127.8 1251.1,110.1" fill="#f8f9fb"/><polygon points="1337.1,0.0 1440.0,0.0 1317.9,127.8" fill="#eef1f4"/><polygon points="1440.0,0.0 1440.0,102.4 1317.9,127.8" fill="#fafbfc"/><polygon points="0.0,102.4 86.0,99.0 0.0,204.8" fill="#fafbfc"/><polygon points="86.0,99.0 94.0,169.6 0.0,204.8" fill="#f5f7f9"/><polygon points="86.0,99.0 236.3,86.0 199.9,178.4" fill="#f2f4f7"/><polygon points="86.0,99.0 199.9,178.4 94.0,169.6" fill="#f8f9fb"/><polygon points="236.3,86.0 338.1,137.5 199.9,178.4" fill="#f2f4f7"/><polygon points="338.1,137.5 297.5,218.7 199.9,178.4" fill="#fafbfc"/><polygon points="338.1,137.5 422.5,94.6 425.4,185.2" fill="#eef1f4"/><polygon points="338.1,137.5 425.4,185.2 297.5,218.7" fill="#ffffff"/><polygon points="422.5,94.6 549.0,89.9 425.4,185.2" fill="#fafbfc"/><polygon points="549.0,89.9 536.0,227.0 425.4,185.2" fill="#eef1f4"/><polygon points="549.0,89.9 594.2,78.4 587.3,172.5" fill="#fafbfc"/><polygon points="549.0,89.9 587.3,172.5 536.0,227.0" fill="#eef1f4"/><polygon points="594.2,78.4 686.6,122.4 587.3,172.5" fill="#f5f7f9"/><polygon points="686.6,122.4 726.3,197.5 587.3,172.5" fill="#f5f7f9"/><polygon points="686.6,122.4 856.9,95.4 821.1,211.7" fill="#ffffff"/><polygon points="686.6,122.4 821.1,211.7 726.3,197.5" fill="#f8f9fb"/><polygon points="856.9,95.4 891.5,85.0 821.1,211.7" fill="#f2f4f7"/><polygon points="891.5,85.0 908.5,238.6 821.1,211.7" fill="#eef1f4"/><polygon points="891.5,85.0 1016.3,108.9 1043.8,240.3" fill="#f5f7f9"/><polygon points="891.5,85.0 1043.8,240.3 908.5,238.6" fill="#eef1f4"/><polygon points="1016.3,108.9 1117.5,68.0 1043.8,240.3" fill="#f5f7f9"/><polygon points="1117.5,68.0 1163.7,175.2 1043.8,240.3" fill="#ffffff"/><polygon points="1117.5,68.0 1251.1,110.1 1199.8,229.6" fill="#f8f9fb"/><polygon points="1117.5,68.0 1199.8,229.6 1163.7,175.2" fill="#fafbfc"/><polygon points="1251.1,110.1 1317.9,127.8 1199.8,229.6" fill="#f5f7f9"/><polygon points="1317.9,127.8 1308.2,203.8 1199.8,229.6" fill="#f8f9fb"/><polygon points="1317.9,127.8 1440.0,102.4 1440.0,204.8" fill="#fafbfc"/><polygon points="1317.9,127.8 1440.0,204.8 1308.2,203.8" fill="#f2f4f7"/><polygon points="0.0,204.8 94.0,169.6 118.9,309.2" fill="#ffffff"/><polygon points="0.0,204.8 118.9,309.2 0.0,307.2" fill="#eef1f4"/><polygon points="94.0,169.6 199.9,178.4 118.9,309.2" fill="#f5f7f9"/><polygon points="199.9,178.4 183.9,336.3 118.9,309.2" fill="#fafbfc"/><polygon points="199.9,178.4 297.5,218.7 286.9,308.1" fill="#eef1f4"/><polygon points="199.9,178.4 286.9,308.1 183.9,336.3" fill="#eef1f4"/><polygon points="297.5,218.7 425.4,185.2 286.9,308.1" fill="#f8f9fb"/><polygon points="425.4,185.2 424.2,285.5 286.9,308.1" fill="#f5f7f9"/><polygon points="425.4,185.2 536.0,227.0 496.3,302.0" fill="#eef1f4"/><polygon points="425.4,185.2 496.3,302.0 424.2,285.5" fill="#f8f9fb"/><polygon points="536.0,227.0 587.3,172.5 496.3,302.0" fill="#fafbfc"/><polygon points="587.3,172.5 601.9,337.7 496.3,302.0" fill="#f5f7f9"/><polygon points="587.3,172.5 726.3,197.5 713.9,314.1" fill="#eef1f4"/><polygon points="587.3,172.5 713.9,314.1 601.9,337.7" fill="#f2f4f7"/><polygon points="726.3,197.5 821.1,211.7 713.9,314.1" fill="#f2f4f7"/><polygon points="821.1,211.7 822.9,318.0 713.9,314.1" fill="#f5f7f9"/><polygon points="821.1,211.7 908.5,238.6 959.1,328.7" fill="#f5f7f9"/><polygon points="821.1,211.7 959.1,328.7 822.9,318.0" fill="#fafbfc"/><polygon points="908.5,238.6 1043.8,240.3 959.1,328.7" fill="#f2f4f7"/><polygon points="1043.8,240.3 1009.8,273.6 959.1,328.7" fill="#f2f4f7"/><polygon points="1043.8,240.3 1163.7,175.2 1154.1,306.9" fill="#f5f7f9"/><polygon points="1043.8,240.3 1154.1,306.9 1009.8,273.6" fill="#f5f7f9"/><polygon points="1163.7,175.2 1199.8,229.6 1154.1,306.9" fill="#f5f7f9"/><polygon points="1199.8,229.6 1268.9,304.2 1154.1,306.9" fill="#f5f7f9"/><polygon points="1199.8,229.6 1308.2,203.8 1356.6,329.4" fill="#ffffff"/><polygon points="1199.8,229.6 1356.6,329.4 1268.9,304.2" fill="#f2f4f7"/><polygon points="1308.2,203.8 1440.0,204.8 1356.6,329.4" fill="#ffffff"/><polygon points="1440.0,204.8 1440.0,307.2 1356.6,329.4" fill="#eef1f4"/><polygon points="0.0,307.2 118.9,309.2 0.0,409.6" fill="#fafbfc"/><polygon points="118.9,309.2 119.9,417.1 0.0,409.6" fill="#ffffff"/><polygon points="118.9,309.2 183.9,336.3 187.9,379.7" fill="#eef1f4"/><polygon points="118.9,309.2 187.9,379.7 119.9,417.1" fill="#f5f7f9"/><polygon points="183.9,336.3 286.9,308.1 187.9,379.7" fill="#fafbfc"/><polygon points="286.9,308.1 317.0,405.5 187.9,379.7" fill="#eef1f4"/><polygon points="286.9,308.1 424.2,285.5 419.2,400.1" fill="#f8f9fb"/><polygon points="286.9,308.1 419.2,400.1 317.0,405.5" fill="#ffffff"/><polygon points="424.2,285.5 496.3,302.0 419.2,400.1" fill="#fafbfc"/><polygon points="496.3,302.0 543.5,409.9 419.2,400.1" fill="#f5f7f9"/><polygon points="496.3,302.0 601.9,337.7 640.2,387.2" fill="#fafbfc"/><polygon points="496.3,302.0 640.2,387.2 543.5,409.9" fill="#fafbfc"/><polygon points="601.9,337.7 713.9,314.1 640.2,387.2" fill="#f5f7f9"/><polygon points="713.9,314.1 754.7,392.1 640.2,387.2" fill="#f5f7f9"/><polygon points="713.9,314.1 822.9,318.0 790.3,400.9" fill="#eef1f4"/><polygon points="713.9,314.1 790.3,400.9 754.7,392.1" fill="#f2f4f7"/><polygon points="822.9,318.0 959.1,328.7 790.3,400.9" fill="#f2f4f7"/><polygon points="959.1,328.7 912.1,427.3 790.3,400.9" fill="#ffffff"/><polygon points="959.1,328.7 1009.8,273.6 1047.6,427.3" fill="#fafbfc"/><polygon points="959.1,328.7 1047.6,427.3 912.1,427.3" fill="#f8f9fb"/><polygon points="1009.8,273.6 1154.1,306.9 1047.6,427.3" fill="#fafbfc"/><polygon points="1154.1,306.9 1161.8,389.1 1047.6,427.3" fill="#eef1f4"/><polygon points="1154.1,306.9 1268.9,304.2 1204.9,381.4" fill="#f8f9fb"/><polygon points="1154.1,306.9 1204.9,381.4 1161.8,389.1" fill="#ffffff"/><polygon points="1268.9,304.2 1356.6,329.4 1204.9,381.4" fill="#f2f4f7"/><polygon points="1356.6,329.4 1312.8,416.5 1204.9,381.4" fill="#eef1f4"/><polygon points="1356.6,329.4 1440.0,307.2 1440.0,409.6" fill="#fafbfc"/><polygon points="1356.6,329.4 1440.0,409.6 1312.8,416.5" fill="#ffffff"/><polygon points="0.0,409.6 119.9,417.1 100.4,540.5" fill="#f2f4f7"/><polygon points="0.0,409.6 100.4,540.5 0.0,512.0" fill="#f8f9fb"/><polygon points="119.9,417.1 187.9,379.7 100.4,540.5" fill="#f2f4f7"/><polygon points="187.9,379.7 180.3,478.3 100.4,540.5" fill="#f8f9fb"/><polygon points="187.9,379.7 317.0,405.5 343.2,476.7" fill="#eef1f4"/><polygon points="187.9,379.7 343.2,476.7 180.3,478.3" fill="#f2f4f7"/><polygon points="317.0,405.5 419.2,400.1 343.2,476.7" fill="#fafbfc"/><polygon points="419.2,400.1 384.2,532.9 343.2,476.7" fill="#eef1f4"/><polygon points="419.2,400.1 543.5,409.9 482.8,515.3" fill="#ffffff"/><polygon points="419.2,400.1 482.8,515.3 384.2,532.9" fill="#f8f9fb"/><polygon points="543.5,409.9 640.2,387.2 482.8,515.3" fill="#eef1f4"/><polygon points="640.2,387.2 619.8,543.2 482.8,515.3" fill="#f5f7f9"/><polygon points="640.2,387.2 754.7,392.1 754.9,516.8" fill="#f2f4f7"/><polygon points="640.2,387.2 754.9,516.8 619.8,543.2" fill="#f2f4f7"/><polygon points="754.7,392.1 790.3,400.9 754.9,516.8" fill="#f2f4f7"/><polygon points="790.3,400.9 803.5,534.7 754.9,516.8" fill="#fafbfc"/><polygon points="790.3,400.9 912.1,427.3 932.3,490.5" fill="#f2f4f7"/><polygon points="790.3,400.9 932.3,490.5 803.5,534.7" fill="#eef1f4"/><polygon points="912.1,427.3 1047.6,427.3 932.3,490.5" fill="#f8f9fb"/><polygon points="1047.6,427.3 1041.3,532.1 932.3,490.5" fill="#f8f9fb"/><polygon points="1047.6,427.3 1161.8,389.1 1107.6,531.3" fill="#f8f9fb"/><polygon points="1047.6,427.3 1107.6,531.3 1041.3,532.1" fill="#ffffff"/><polygon points="1161.8,389.1 1204.9,381.4 1107.6,531.3" fill="#fafbfc"/><polygon points="1204.9,381.4 1255.9,509.3 1107.6,531.3" fill="#ffffff"/><polygon points="1204.9,381.4 1312.8,416.5 1369.7,515.5" fill="#f5f7f9"/><polygon points="1204.9,381.4 1369.7,515.5 1255.9,509.3" fill="#f8f9fb"/><polygon points="1312.8,416.5 1440.0,409.6 1369.7,515.5" fill="#f2f4f7"/><polygon points="1440.0,409.6 1440.0,512.0 1369.7,515.5" fill="#eef1f4"/><polygon points="0.0,512.0 100.4,540.5 0.0,614.4" fill="#f8f9fb"/><polygon points="100.4,540.5 133.8,626.0 0.0,614.4" fill="#f5f7f9"/><polygon points="100.4,540.5 180.3,478.3 190.2,626.1" fill="#f2f4f7"/><polygon points="100.4,540.5 190.2,626.1 133.8,626.0" fill="#fafbfc"/><polygon points="180.3,478.3 343.2,476.7 190.2,626.1" fill="#f2f4f7"/><polygon points="343.2,476.7 299.2,589.2 190.2,626.1" fill="#ffffff"/><polygon points="343.2,476.7 384.2,532.9 388.5,590.6" fill="#f2f4f7"/><polygon points="343.2,476.7 388.5,590.6 299.2,589.2" fill="#f8f9fb"/><polygon points="384.2,532.9 482.8,515.3 388.5,590.6" fill="#f8f9fb"/><polygon points="482.8,515.3 527.7,616.2 388.5,590.6" fill="#fafbfc"/><polygon points="482.8,515.3 619.8,543.2 594.3,596.1" fill="#eef1f4"/><polygon points="482.8,515.3 594.3,596.1 527.7,616.2" fill="#fafbfc"/><polygon points="619.8,543.2 754.9,516.8 594.3,596.1" fill="#fafbfc"/><polygon points="754.9,516.8 738.1,634.8 594.3,596.1" fill="#fafbfc"/><polygon points="754.9,516.8 803.5,534.7 800.6,628.3" fill="#fafbfc"/><polygon points="754.9,516.8 800.6,628.3 738.1,634.8" fill="#f2f4f7"/><polygon points="803.5,534.7 932.3,490.5 800.6,628.3" fill="#fafbfc"/><polygon points="932.3,490.5 891.1,638.8 800.6,628.3" fill="#f5f7f9"/><polygon points="932.3,490.5 1041.3,532.1 1016.2,649.4" fill="#eef1f4"/><polygon points="932.3,490.5 1016.2,649.4 891.1,638.8" fill="#ffffff"/><polygon points="1041.3,532.1 1107.6,531.3 1016.2,649.4" fill="#f2f4f7"/><polygon points="1107.6,531.3 1097.6,599.9 1016.2,649.4" fill="#ffffff"/><polygon points="1107.6,531.3 1255.9,509.3 1225.9,642.0" fill="#f5f7f9"/><polygon points="1107.6,531.3 1225.9,642.0 1097.6,599.9" fill="#f2f4f7"/><polygon points="1255.9,509.3 1369.7,515.5 1225.9,642.0" fill="#eef1f4"/><polygon points="1369.7,515.5 1358.1,634.3 1225.9,642.0" fill="#ffffff"/><polygon points="1369.7,515.5 1440.0,512.0 1440.0,614.4" fill="#f8f9fb"/><polygon points="1369.7,515.5 1440.0,614.4 1358.1,634.3" fill="#f2f4f7"/><polygon points="0.0,614.4 133.8,626.0 81.8,736.0" fill="#f2f4f7"/><polygon points="0.0,614.4 81.8,736.0 0.0,716.8" fill="#f8f9fb"/><polygon points="133.8,626.0 190.2,626.1 81.8,736.0" fill="#f5f7f9"/><polygon points="190.2,626.1 200.1,686.3 81.8,736.0" fill="#fafbfc"/><polygon points="190.2,626.1 299.2,589.2 292.7,711.5" fill="#f2f4f7"/><polygon points="190.2,626.1 292.7,711.5 200.1,686.3" fill="#f8f9fb"/><polygon points="299.2,589.2 388.5,590.6 292.7,711.5" fill="#ffffff"/><polygon points="388.5,590.6 410.9,685.0 292.7,711.5" fill="#f2f4f7"/><polygon points="388.5,590.6 527.7,616.2 483.1,713.1" fill="#fafbfc"/><polygon points="388.5,590.6 483.1,713.1 410.9,685.0" fill="#fafbfc"/><polygon points="527.7,616.2 594.3,596.1 483.1,713.1" fill="#f5f7f9"/><polygon points="594.3,596.1 628.1,731.8 483.1,713.1" fill="#fafbfc"/><polygon points="594.3,596.1 738.1,634.8 687.8,728.9" fill="#f2f4f7"/><polygon points="594.3,596.1 687.8,728.9 628.1,731.8" fill="#eef1f4"/><polygon points="738.1,634.8 800.6,628.3 687.8,728.9" fill="#f5f7f9"/><polygon points="800.6,628.3 837.1,731.5 687.8,728.9" fill="#f8f9fb"/><polygon points="800.6,628.3 891.1,638.8 954.4,682.2" fill="#f8f9fb"/><polygon points="800.6,628.3 954.4,682.2 837.1,731.5" fill="#ffffff"/><polygon points="891.1,638.8 1016.2,649.4 954.4,682.2" fill="#eef1f4"/><polygon points="1016.2,649.4 1003.0,735.9 954.4,682.2" fill="#f8f9fb"/><polygon points="1016.2,649.4 1097.6,599.9 1147.9,709.7" fill="#eef1f4"/><polygon points="1016.2,649.4 1147.9,709.7 1003.0,735.9" fill="#f2f4f7"/><polygon points="1097.6,599.9 1225.9,642.0 1147.9,709.7" fill="#eef1f4"/><polygon points="1225.9,642.0 1260.3,729.3 1147.9,709.7" fill="#eef1f4"/><polygon points="1225.9,642.0 1358.1,634.3 1371.4,731.2" fill="#ffffff"/><polygon points="1225.9,642.0 1371.4,731.2 1260.3,729.3" fill="#f2f4f7"/><polygon points="1358.1,634.3 1440.0,614.4 1371.4,731.2" fill="#f2f4f7"/><polygon points="1440.0,614.4 1440.0,716.8 1371.4,731.2" fill="#ffffff"/><polygon points="0.0,716.8 81.8,736.0 0.0,819.2" fill="#f8f9fb"/><polygon points="81.8,736.0 91.8,851.3 0.0,819.2" fill="#f8f9fb"/><polygon points="81.8,736.0 200.1,686.3 231.9,855.0" fill="#eef1f4"/><polygon points="81.8,736.0 231.9,855.0 91.8,851.3" fill="#f5f7f9"/><polygon points="200.1,686.3 292.7,711.5 231.9,855.0" fill="#f2f4f7"/><polygon points="292.7,711.5 313.4,821.9 231.9,855.0" fill="#fafbfc"/><polygon points="292.7,711.5 410.9,685.0 404.0,812.1" fill="#fafbfc"/><polygon points="292.7,711.5 404.0,812.1 313.4,821.9" fill="#fafbfc"/><polygon points="410.9,685.0 483.1,713.1 404.0,812.1" fill="#fafbfc"/><polygon points="483.1,713.1 511.4,845.3 404.0,812.1" fill="#fafbfc"/><polygon points="483.1,713.1 628.1,731.8 609.3,810.1" fill="#f2f4f7"/><polygon points="483.1,713.1 609.3,810.1 511.4,845.3" fill="#fafbfc"/><polygon points="628.1,731.8 687.8,728.9 609.3,810.1" fill="#f2f4f7"/><polygon points="687.8,728.9 689.0,791.3 609.3,810.1" fill="#f2f4f7"/><polygon points="687.8,728.9 837.1,731.5 826.6,827.2" fill="#ffffff"/><polygon points="687.8,728.9 826.6,827.2 689.0,791.3" fill="#eef1f4"/><polygon points="837.1,731.5 954.4,682.2 826.6,827.2" fill="#f5f7f9"/><polygon points="954.4,682.2 952.2,826.3 826.6,827.2" fill="#f5f7f9"/><polygon points="954.4,682.2 1003.0,735.9 1014.7,805.7" fill="#fafbfc"/><polygon points="954.4,682.2 1014.7,805.7 952.2,826.3" fill="#fafbfc"/><polygon points="1003.0,735.9 1147.9,709.7 1014.7,805.7" fill="#f8f9fb"/><polygon points="1147.9,709.7 1106.1,814.3 1014.7,805.7" fill="#eef1f4"/><polygon points="1147.9,709.7 1260.3,729.3 1213.0,849.1" fill="#eef1f4"/><polygon points="1147.9,709.7 1213.0,849.1 1106.1,814.3" fill="#f5f7f9"/><polygon points="1260.3,729.3 1371.4,731.2 1213.0,849.1" fill="#fafbfc"/><polygon points="1371.4,731.2 1335.1,837.2 1213.0,849.1" fill="#eef1f4"/><polygon points="1371.4,731.2 1440.0,716.8 1440.0,819.2" fill="#f2f4f7"/><polygon points="1371.4,731.2 1440.0,819.2 1335.1,837.2" fill="#eef1f4"/><polygon points="0.0,819.2 91.8,851.3 105.3,912.4" fill="#eef1f4"/><polygon points="0.0,819.2 105.3,912.4 0.0,921.6" fill="#f5f7f9"/><polygon points="91.8,851.3 231.9,855.0 105.3,912.4" fill="#eef1f4"/><polygon points="231.9,855.0 237.3,897.9 105.3,912.4" fill="#eef1f4"/><polygon points="231.9,855.0 313.4,821.9 274.4,941.8" fill="#eef1f4"/><polygon points="231.9,855.0 274.4,941.8 237.3,897.9" fill="#f8f9fb"/><polygon points="313.4,821.9 404.0,812.1 274.4,941.8" fill="#fafbfc"/><polygon points="404.0,812.1 436.0,949.8 274.4,941.8" fill="#fafbfc"/><polygon points="404.0,812.1 511.4,845.3 527.3,922.3" fill="#f2f4f7"/><polygon points="404.0,812.1 527.3,922.3 436.0,949.8" fill="#fafbfc"/><polygon points="511.4,845.3 609.3,810.1 527.3,922.3" fill="#f8f9fb"/><polygon points="609.3,810.1 619.6,930.1 527.3,922.3" fill="#f8f9fb"/><polygon points="609.3,810.1 689.0,791.3 710.3,926.0" fill="#f2f4f7"/><polygon points="609.3,810.1 710.3,926.0 619.6,930.1" fill="#f2f4f7"/><polygon points="689.0,791.3 826.6,827.2 710.3,926.0" fill="#ffffff"/><polygon points="826.6,827.2 835.1,918.0 710.3,926.0" fill="#f8f9fb"/><polygon points="826.6,827.2 952.2,826.3 938.2,954.0" fill="#f5f7f9"/><polygon points="826.6,827.2 938.2,954.0 835.1,918.0" fill="#f8f9fb"/><polygon points="952.2,826.3 1014.7,805.7 938.2,954.0" fill="#eef1f4"/><polygon points="1014.7,805.7 1056.2,934.3 938.2,954.0" fill="#f5f7f9"/><polygon points="1014.7,805.7 1106.1,814.3 1139.0,903.4" fill="#f2f4f7"/><polygon points="1014.7,805.7 1139.0,903.4 1056.2,934.3" fill="#fafbfc"/><polygon points="1106.1,814.3 1213.0,849.1 1139.0,903.4" fill="#f5f7f9"/><polygon points="1213.0,849.1 1205.6,900.9 1139.0,903.4" fill="#fafbfc"/><polygon points="1213.0,849.1 1335.1,837.2 1305.8,913.3" fill="#fafbfc"/><polygon points="1213.0,849.1 1305.8,913.3 1205.6,900.9" fill="#f8f9fb"/><polygon points="1335.1,837.2 1440.0,819.2 1305.8,913.3" fill="#f5f7f9"/><polygon points="1440.0,819.2 1440.0,921.6 1305.8,913.3" fill="#ffffff"/><polygon points="0.0,921.6 105.3,912.4 0.0,1024.0" fill="#ffffff"/><polygon points="105.3,912.4 102.9,1024.0 0.0,1024.0" fill="#eef1f4"/><polygon points="105.3,912.4 237.3,897.9 205.7,1024.0" fill="#f8f9fb"/><polygon points="105.3,912.4 205.7,1024.0 102.9,1024.0" fill="#f2f4f7"/><polygon points="237.3,897.9 274.4,941.8 205.7,1024.0" fill="#eef1f4"/><polygon points="274.4,941.8 308.6,1024.0 205.7,1024.0" fill="#f8f9fb"/><polygon points="274.4,941.8 436.0,949.8 411.4,1024.0" fill="#f2f4f7"/><polygon points="274.4,941.8 411.4,1024.0 308.6,1024.0" fill="#eef1f4"/><polygon points="436.0,949.8 527.3,922.3 411.4,1024.0" fill="#f2f4f7"/><polygon points="527.3,922.3 514.3,1024.0 411.4,1024.0" fill="#f2f4f7"/><polygon points="527.3,922.3 619.6,930.1 617.1,1024.0" fill="#fafbfc"/><polygon points="527.3,922.3 617.1,1024.0 514.3,1024.0" fill="#ffffff"/><polygon points="619.6,930.1 710.3,926.0 617.1,1024.0" fill="#fafbfc"/><polygon points="710.3,926.0 720.0,1024.0 617.1,1024.0" fill="#fafbfc"/><polygon points="710.3,926.0 835.1,918.0 822.9,1024.0" fill="#fafbfc"/><polygon points="710.3,926.0 822.9,1024.0 720.0,1024.0" fill="#f2f4f7"/><polygon points="835.1,918.0 938.2,954.0 822.9,1024.0" fill="#ffffff"/><polygon points="938.2,954.0 925.7,1024.0 822.9,1024.0" fill="#ffffff"/><polygon points="938.2,954.0 1056.2,934.3 1028.6,1024.0" fill="#f5f7f9"/><polygon points="938.2,954.0 1028.6,1024.0 925.7,1024.0" fill="#f2f4f7"/><polygon points="1056.2,934.3 1139.0,903.4 1028.6,1024.0" fill="#f5f7f9"/><polygon points="1139.0,903.4 1131.4,1024.0 1028.6,1024.0" fill="#ffffff"/><polygon points="1139.0,903.4 1205.6,900.9 1234.3,1024.0" fill="#f2f4f7"/><polygon points="1139.0,903.4 1234.3,1024.0 1131.4,1024.0" fill="#f5f7f9"/><polygon points="1205.6,900.9 1305.8,913.3 1234.3,1024.0" fill="#f2f4f7"/><polygon points="1305.8,913.3 1337.1,1024.0 1234.3,1024.0" fill="#fafbfc"/><polygon points="1305.8,913.3 1440.0,921.6 1440.0,1024.0" fill="#f5f7f9"/><polygon points="1305.8,913.3 1440.0,1024.0 1337.1,1024.0" fill="#ffffff"/></g>
<g stroke="#dfe3e9" stroke-width="0.8"><line x1="0.0" y1="0.0" x2="102.9" y2="0.0"/><line x1="0.0" y1="0.0" x2="0.0" y2="102.4"/><line x1="0.0" y1="0.0" x2="86.0" y2="99.0" stroke-opacity="0.5"/><line x1="102.9" y1="0.0" x2="205.7" y2="0.0"/><line x1="102.9" y1="0.0" x2="86.0" y2="99.0"/><line x1="102.9" y1="0.0" x2="236.3" y2="86.0" stroke-opacity="0.5"/><line x1="205.7" y1="0.0" x2="308.6" y2="0.0"/><line x1="205.7" y1="0.0" x2="236.3" y2="86.0"/><line x1="205.7" y1="0.0" x2="338.1" y2="137.5" stroke-opacity="0.5"/><line x1="308.6" y1="0.0" x2="411.4" y2="0.0"/><line x1="308.6" y1="0.0" x2="338.1" y2="137.5"/><line x1="308.6" y1="0.0" x2="422.5" y2="94.6" stroke-opacity="0.5"/><line x1="411.4" y1="0.0" x2="514.3" y2="0.0"/><line x1="411.4" y1="0.0" x2="422.5" y2="94.6"/><line x1="411.4" y1="0.0" x2="549.0" y2="89.9" stroke-opacity="0.5"/><line x1="514.3" y1="0.0" x2="617.1" y2="0.0"/><line x1="514.3" y1="0.0" x2="549.0" y2="89.9"/><line x1="514.3" y1="0.0" x2="594.2" y2="78.4" stroke-opacity="0.5"/><line x1="617.1" y1="0.0" x2="720.0" y2="0.0"/><line x1="617.1" y1="0.0" x2="594.2" y2="78.4"/><line x1="617.1" y1="0.0" x2="686.6" y2="122.4" stroke-opacity="0.5"/><line x1="720.0" y1="0.0" x2="822.9" y2="0.0"/><line x1="720.0" y1="0.0" x2="686.6" y2="122.4"/><line x1="720.0" y1="0.0" x2="856.9" y2="95.4" stroke-opacity="0.5"/><line x1="822.9" y1="0.0" x2="925.7" y2="0.0"/><line x1="822.9" y1="0.0" x2="856.9" y2="95.4"/><line x1="822.9" y1="0.0" x2="891.5" y2="85.0" stroke-opacity="0.5"/><line x1="925.7" y1="0.0" x2="1028.6" y2="0.0"/><line x1="925.7" y1="0.0" x2="891.5" y2="85.0"/><line x1="925.7" y1="0.0" x2="1016.3" y2="108.9" stroke-opacity="0.5"/><line x1="1028.6" y1="0.0" x2="1131.4" y2="0.0"/><line x1="1028.6" y1="0.0" x2="1016.3" y2="108.9"/><line x1="1028.6" y1="0.0" x2="1117.5" y2="68.0" stroke-opacity="0.5"/><line x1="1131.4" y1="0.0" x2="1234.3" y2="0.0"/><line x1="1131.4" y1="0.0" x2="1117.5" y2="68.0"/><line x1="1131.4" y1="0.0" x2="1251.1" y2="110.1" stroke-opacity="0.5"/><line x1="1234.3" y1="0.0" x2="1337.1" y2="0.0"/><line x1="1234.3" y1="0.0" x2="1251.1" y2="110.1"/><line x1="1234.3" y1="0.0" x2="1317.9" y2="127.8" stroke-opacity="0.5"/><line x1="1337.1" y1="0.0" x2="1440.0" y2="0.0"/><line x1="1337.1" y1="0.0" x2="1317.9" y2="127.8"/><line x1="1337.1" y1="0.0" x2="1440.0" y2="102.4" stroke-opacity="0.5"/><line x1="1440.0" y1="0.0" x2="1440.0" y2="102.4"/><line x1="0.0" y1="102.4" x2="86.0" y2="99.0"/><line x1="0.0" y1="102.4" x2="0.0" y2="204.8"/><line x1="0.0" y1="102.4" x2="94.0" y2="169.6" stroke-opacity="0.5"/><line x1="86.0" y1="99.0" x2="236.3" y2="86.0"/><line x1="86.0" y1="99.0" x2="94.0" y2="169.6"/><line x1="86.0" y1="99.0" x2="199.9" y2="178.4" stroke-opacity="0.5"/><line x1="236.3" y1="86.0" x2="338.1" y2="137.5"/><line x1="236.3" y1="86.0" x2="199.9" y2="178.4"/><line x1="236.3" y1="86.0" x2="297.5" y2="218.7" stroke-opacity="0.5"/><line x1="338.1" y1="137.5" x2="422.5" y2="94.6"/><line x1="338.1" y1="137.5" x2="297.5" y2="218.7"/><line x1="338.1" y1="137.5" x2="425.4" y2="185.2" stroke-opacity="0.5"/><line x1="422.5" y1="94.6" x2="549.0" y2="89.9"/><line x1="422.5" y1="94.6" x2="425.4" y2="185.2"/><line x1="422.5" y1="94.6" x2="536.0" y2="227.0" stroke-opacity="0.5"/><line x1="549.0" y1="89.9" x2="594.2" y2="78.4"/><line x1="549.0" y1="89.9" x2="536.0" y2="227.0"/><line x1="549.0" y1="89.9" x2="587.3" y2="172.5" stroke-opacity="0.5"/><line x1="594.2" y1="78.4" x2="686.6" y2="122.4"/><line x1="594.2" y1="78.4" x2="587.3" y2="172.5"/><line x1="594.2" y1="78.4" x2="726.3" y2="197.5" stroke-opacity="0.5"/><line x1="686.6" y1="122.4" x2="856.9" y2="95.4"/><line x1="686.6" y1="122.4" x2="726.3" y2="197.5"/><line x1="686.6" y1="122.4" x2="821.1" y2="211.7" stroke-opacity="0.5"/><line x1="856.9" y1="95.4" x2="891.5" y2="85.0"/><line x1="856.9" y1="95.4" x2="821.1" y2="211.7"/><line x1="856.9" y1="95.4" x2="908.5" y2="238.6" stroke-opacity="0.5"/><line x1="891.5" y1="85.0" x2="1016.3" y2="108.9"/><line x1="891.5" y1="85.0" x2="908.5" y2="238.6"/><line x1="891.5" y1="85.0" x2="1043.8" y2="240.3" stroke-opacity="0.5"/><line x1="1016.3" y1="108.9" x2="1117.5" y2="68.0"/><line x1="1016.3" y1="108.9" x2="1043.8" y2="240.3"/><line x1="1016.3" y1="108.9" x2="1163.7" y2="175.2" stroke-opacity="0.5"/><line x1="1117.5" y1="68.0" x2="1251.1" y2="110.1"/><line x1="1117.5" y1="68.0" x2="1163.7" y2="175.2"/><line x1="1117.5" y1="68.0" x2="1199.8" y2="229.6" stroke-opacity="0.5"/><line x1="1251.1" y1="110.1" x2="1317.9" y2="127.8"/><line x1="1251.1" y1="110.1" x2="1199.8" y2="229.6"/><line x1="1251.1" y1="110.1" x2="1308.2" y2="203.8" stroke-opacity="0.5"/><line x1="1317.9" y1="127.8" x2="1440.0" y2="102.4"/><line x1="1317.9" y1="127.8" x2="1308.2" y2="203.8"/><line x1="1317.9" y1="127.8" x2="1440.0" y2="204.8" stroke-opacity="0.5"/><line x1="1440.0" y1="102.4" x2="1440.0" y2="204.8"/><line x1="0.0" y1="204.8" x2="94.0" y2="169.6"/><line x1="0.0" y1="204.8" x2="0.0" y2="307.2"/><line x1="0.0" y1="204.8" x2="118.9" y2="309.2" stroke-opacity="0.5"/><line x1="94.0" y1="169.6" x2="199.9" y2="178.4"/><line x1="94.0" y1="169.6" x2="118.9" y2="309.2"/><line x1="94.0" y1="169.6" x2="183.9" y2="336.3" stroke-opacity="0.5"/><line x1="199.9" y1="178.4" x2="297.5" y2="218.7"/><line x1="199.9" y1="178.4" x2="183.9" y2="336.3"/><line x1="199.9" y1="178.4" x2="286.9" y2="308.1" stroke-opacity="0.5"/><line x1="297.5" y1="218.7" x2="425.4" y2="185.2"/><line x1="297.5" y1="218.7" x2="286.9" y2="308.1"/><line x1="297.5" y1="218.7" x2="424.2" y2="285.5" stroke-opacity="0.5"/><line x1="425.4" y1="185.2" x2="536.0" y2="227.0"/><line x1="425.4" y1="185.2" x2="424.2" y2="285.5"/><line x1="425.4" y1="185.2" x2="496.3" y2="302.0" stroke-opacity="0.5"/><line x1="536.0" y1="227.0" x2="587.3" y2="172.5"/><line x1="536.0" y1="227.0" x2="496.3" y2="302.0"/><line x1="536.0" y1="227.0" x2="601.9" y2="337.7" stroke-opacity="0.5"/><line x1="587.3" y1="172.5" x2="726.3" y2="197.5"/><line x1="587.3" y1="172.5" x2="601.9" y2="337.7"/><line x1="587.3" y1="172.5" x2="713.9" y2="314.1" stroke-opacity="0.5"/><line x1="726.3" y1="197.5" x2="821.1" y2="211.7"/><line x1="726.3" y1="197.5" x2="713.9" y2="314.1"/><line x1="726.3" y1="197.5" x2="822.9" y2="318.0" stroke-opacity="0.5"/><line x1="821.1" y1="211.7" x2="908.5" y2="238.6"/><line x1="821.1" y1="211.7" x2="822.9" y2="318.0"/><line x1="821.1" y1="211.7" x2="959.1" y2="328.7" stroke-opacity="0.5"/><line x1="908.5" y1="238.6" x2="1043.8" y2="240.3"/><line x1="908.5" y1="238.6" x2="959.1" y2="328.7"/><line x1="908.5" y1="238.6" x2="1009.8" y2="273.6" stroke-opacity="0.5"/><line x1="1043.8" y1="240.3" x2="1163.7" y2="175.2"/><line x1="1043.8" y1="240.3" x2="1009.8" y2="273.6"/><line x1="1043.8" y1="240.3" x2="1154.1" y2="306.9" stroke-opacity="0.5"/><line x1="1163.7" y1="175.2" x2="1199.8" y2="229.6"/><line x1="1163.7" y1="175.2" x2="1154.1" y2="306.9"/><line x1="1163.7" y1="175.2" x2="1268.9" y2="304.2" stroke-opacity="0.5"/><line x1="1199.8" y1="229.6" x2="1308.2" y2="203.8"/><line x1="1199.8" y1="229.6" x2="1268.9" y2="304.2"/><line x1="1199.8" y1="229.6" x2="1356.6" y2="329.4" stroke-opacity="0.5"/><line x1="1308.2" y1="203.8" x2="1440.0" y2="204.8"/><line x1="1308.2" y1="203.8" x2="1356.6" y2="329.4"/><line x1="1308.2" y1="203.8" x2="1440.0" y2="307.2" stroke-opacity="0.5"/><line x1="1440.0" y1="204.8" x2="1440.0" y2="307.2"/><line x1="0.0" y1="307.2" x2="118.9" y2="309.2"/><line x1="0.0" y1="307.2" x2="0.0" y2="409.6"/><line x1="0.0" y1="307.2" x2="119.9" y2="417.1" stroke-opacity="0.5"/><line x1="118.9" y1="309.2" x2="183.9" y2="336.3"/><line x1="118.9" y1="309.2" x2="119.9" y2="417.1"/><line x1="118.9" y1="309.2" x2="187.9" y2="379.7" stroke-opacity="0.5"/><line x1="183.9" y1="336.3" x2="286.9" y2="308.1"/><line x1="183.9" y1="336.3" x2="187.9" y2="379.7"/><line x1="183.9" y1="336.3" x2="317.0" y2="405.5" stroke-opacity="0.5"/><line x1="286.9" y1="308.1" x2="424.2" y2="285.5"/><line x1="286.9" y1="308.1" x2="317.0" y2="405.5"/><line x1="286.9" y1="308.1" x2="419.2" y2="400.1" stroke-opacity="0.5"/><line x1="424.2" y1="285.5" x2="496.3" y2="302.0"/><line x1="424.2" y1="285.5" x2="419.2" y2="400.1"/><line x1="424.2" y1="285.5" x2="543.5" y2="409.9" stroke-opacity="0.5"/><line x1="496.3" y1="302.0" x2="601.9" y2="337.7"/><line x1="496.3" y1="302.0" x2="543.5" y2="409.9"/><line x1="496.3" y1="302.0" x2="640.2" y2="387.2" stroke-opacity="0.5"/><line x1="601.9" y1="337.7" x2="713.9" y2="314.1"/><line x1="601.9" y1="337.7" x2="640.2" y2="387.2"/><line x1="601.9" y1="337.7" x2="754.7" y2="392.1" stroke-opacity="0.5"/><line x1="713.9" y1="314.1" x2="822.9" y2="318.0"/><line x1="713.9" y1="314.1" x2="754.7" y2="392.1"/><line x1="713.9" y1="314.1" x2="790.3" y2="400.9" stroke-opacity="0.5"/><line x1="822.9" y1="318.0" x2="959.1" y2="328.7"/><line x1="822.9" y1="318.0" x2="790.3" y2="400.9"/><line x1="822.9" y1="318.0" x2="912.1" y2="427.3" stroke-opacity="0.5"/><line x1="959.1" y1="328.7" x2="1009.8" y2="273.6"/><line x1="959.1" y1="328.7" x2="912.1" y2="427.3"/><line x1="959.1" y1="328.7" x2="1047.6" y2="427.3" stroke-opacity="0.5"/><line x1="1009.8" y1="273.6" x2="1154.1" y2="306.9"/><line x1="1009.8" y1="273.6" x2="1047.6" y2="427.3"/><line x1="1009.8" y1="273.6" x2="1161.8" y2="389.1" stroke-opacity="0.5"/><line x1="1154.1" y1="306.9" x2="1268.9" y2="304.2"/><line x1="1154.1" y1="306.9" x2="1161.8" y2="389.1"/><line x1="1154.1" y1="306.9" x2="1204.9" y2="381.4" stroke-opacity="0.5"/><line x1="1268.9" y1="304.2" x2="1356.6" y2="329.4"/><line x1="1268.9" y1="304.2" x2="1204.9" y2="381.4"/><line x1="1268.9" y1="304.2" x2="1312.8" y2="416.5" stroke-opacity="0.5"/><line x1="1356.6" y1="329.4" x2="1440.0" y2="307.2"/><line x1="1356.6" y1="329.4" x2="1312.8" y2="416.5"/><line x1="1356.6" y1="329.4" x2="1440.0" y2="409.6" stroke-opacity="0.5"/><line x1="1440.0" y1="307.2" x2="1440.0" y2="409.6"/><line x1="0.0" y1="409.6" x2="119.9" y2="417.1"/><line x1="0.0" y1="409.6" x2="0.0" y2="512.0"/><line x1="0.0" y1="409.6" x2="100.4" y2="540.5" stroke-opacity="0.5"/><line x1="119.9" y1="417.1" x2="187.9" y2="379.7"/><line x1="119.9" y1="417.1" x2="100.4" y2="540.5"/><line x1="119.9" y1="417.1" x2="180.3" y2="478.3" stroke-opacity="0.5"/><line x1="187.9" y1="379.7" x2="317.0" y2="405.5"/><line x1="187.9" y1="379.7" x2="180.3" y2="478.3"/><line x1="187.9" y1="379.7" x2="343.2" y2="476.7" stroke-opacity="0.5"/><line x1="317.0" y1="405.5" x2="419.2" y2="400.1"/><line x1="317.0" y1="405.5" x2="343.2" y2="476.7"/><line x1="317.0" y1="405.5" x2="384.2" y2="532.9" stroke-opacity="0.5"/><line x1="419.2" y1="400.1" x2="543.5" y2="409.9"/><line x1="419.2" y1="400.1" x2="384.2" y2="532.9"/><line x1="419.2" y1="400.1" x2="482.8" y2="515.3" stroke-opacity="0.5"/><line x1="543.5" y1="409.9" x2="640.2" y2="387.2"/><line x1="543.5" y1="409.9" x2="482.8" y2="515.3"/><line x1="543.5" y1="409.9" x2="619.8" y2="543.2" stroke-opacity="0.5"/><line x1="640.2" y1="387.2" x2="754.7" y2="392.1"/><line x1="640.2" y1="387.2" x2="619.8" y2="543.2"/><line x1="640.2" y1="387.2" x2="754.9" y2="516.8" stroke-opacity="0.5"/><line x1="754.7" y1="392.1" x2="790.3" y2="400.9"/><line x1="754.7" y1="392.1" x2="754.9" y2="516.8"/><line x1="754.7" y1="392.1" x2="803.5" y2="534.7" stroke-opacity="0.5"/><line x1="790.3" y1="400.9" x2="912.1" y2="427.3"/><line x1="790.3" y1="400.9" x2="803.5" y2="534.7"/><line x1="790.3" y1="400.9" x2="932.3" y2="490.5" stroke-opacity="0.5"/><line x1="912.1" y1="427.3" x2="1047.6" y2="427.3"/><line x1="912.1" y1="427.3" x2="932.3" y2="490.5"/><line x1="912.1" y1="427.3" x2="1041.3" y2="532.1" stroke-opacity="0.5"/><line x1="1047.6" y1="427.3" x2="1161.8" y2="389.1"/><line x1="1047.6" y1="427.3" x2="1041.3" y2="532.1"/><line x1="1047.6" y1="427.3" x2="1107.6" y2="531.3" stroke-opacity="0.5"/><line x1="1161.8" y1="389.1" x2="1204.9" y2="381.4"/><line x1="1161.8" y1="389.1" x2="1107.6" y2="531.3"/><line x1="1161.8" y1="389.1" x2="1255.9" y2="509.3" stroke-opacity="0.5"/><line x1="1204.9" y1="381.4" x2="1312.8" y2="416.5"/><line x1="1204.9" y1="381.4" x2="1255.9" y2="509.3"/><line x1="1204.9" y1="381.4" x2="1369.7" y2="515.5" stroke-opacity="0.5"/><line x1="1312.8" y1="416.5" x2="1440.0" y2="409.6"/><line x1="1312.8" y1="416.5" x2="1369.7" y2="515.5"/><line x1="1312.8" y1="416.5" x2="1440.0" y2="512.0" stroke-opacity="0.5"/><line x1="1440.0" y1="409.6" x2="1440.0" y2="512.0"/><line x1="0.0" y1="512.0" x2="100.4" y2="540.5"/><line x1="0.0" y1="512.0" x2="0.0" y2="614.4"/><line x1="0.0" y1="512.0" x2="133.8" y2="626.0" stroke-opacity="0.5"/><line x1="100.4" y1="540.5" x2="180.3" y2="478.3"/><line x1="100.4" y1="540.5" x2="133.8" y2="626.0"/><line x1="100.4" y1="540.5" x2="190.2" y2="626.1" stroke-opacity="0.5"/><line x1="180.3" y1="478.3" x2="343.2" y2="476.7"/><line x1="180.3" y1="478.3" x2="190.2" y2="626.1"/><line x1="180.3" y1="478.3" x2="299.2" y2="589.2" stroke-opacity="0.5"/><line x1="343.2" y1="476.7" x2="384.2" y2="532.9"/><line x1="343.2" y1="476.7" x2="299.2" y2="589.2"/><line x1="343.2" y1="476.7" x2="388.5" y2="590.6" stroke-opacity="0.5"/><line x1="384.2" y1="532.9" x2="482.8" y2="515.3"/><line x1="384.2" y1="532.9" x2="388.5" y2="590.6"/><line x1="384.2" y1="532.9" x2="527.7" y2="616.2" stroke-opacity="0.5"/><line x1="482.8" y1="515.3" x2="619.8" y2="543.2"/><line x1="482.8" y1="515.3" x2="527.7" y2="616.2"/><line x1="482.8" y1="515.3" x2="594.3" y2="596.1" stroke-opacity="0.5"/><line x1="619.8" y1="543.2" x2="754.9" y2="516.8"/><line x1="619.8" y1="543.2" x2="594.3" y2="596.1"/><line x1="619.8" y1="543.2" x2="738.1" y2="634.8" stroke-opacity="0.5"/><line x1="754.9" y1="516.8" x2="803.5" y2="534.7"/><line x1="754.9" y1="516.8" x2="738.1" y2="634.8"/><line x1="754.9" y1="516.8" x2="800.6" y2="628.3" stroke-opacity="0.5"/><line x1="803.5" y1="534.7" x2="932.3" y2="490.5"/><line x1="803.5" y1="534.7" x2="800.6" y2="628.3"/><line x1="803.5" y1="534.7" x2="891.1" y2="638.8" stroke-opacity="0.5"/><line x1="932.3" y1="490.5" x2="1041.3" y2="532.1"/><line x1="932.3" y1="490.5" x2="891.1" y2="638.8"/><line x1="932.3" y1="490.5" x2="1016.2" y2="649.4" stroke-opacity="0.5"/><line x1="1041.3" y1="532.1" x2="1107.6" y2="531.3"/><line x1="1041.3" y1="532.1" x2="1016.2" y2="649.4"/><line x1="1041.3" y1="532.1" x2="1097.6" y2="599.9" stroke-opacity="0.5"/><line x1="1107.6" y1="531.3" x2="1255.9" y2="509.3"/><line x1="1107.6" y1="531.3" x2="1097.6" y2="599.9"/><line x1="1107.6" y1="531.3" x2="1225.9" y2="642.0" stroke-opacity="0.5"/><line x1="1255.9" y1="509.3" x2="1369.7" y2="515.5"/><line x1="1255.9" y1="509.3" x2="1225.9" y2="642.0"/><line x1="1255.9" y1="509.3" x2="1358.1" y2="634.3" stroke-opacity="0.5"/><line x1="1369.7" y1="515.5" x2="1440.0" y2="512.0"/><line x1="1369.7" y1="515.5" x2="1358.1" y2="634.3"/><line x1="1369.7" y1="515.5" x2="1440.0" y2="614.4" stroke-opacity="0.5"/><line x1="1440.0" y1="512.0" x2="1440.0" y2="614.4"/><line x1="0.0" y1="614.4" x2="133.8" y2="626.0"/><line x1="0.0" y1="614.4" x2="0.0" y2="716.8"/><line x1="0.0" y1="614.4" x2="81.8" y2="736.0" stroke-opacity="0.5"/><line x1="133.8" y1="626.0" x2="190.2" y2="626.1"/><line x1="133.8" y1="626.0" x2="81.8" y2="736.0"/><line x1="133.8" y1="626.0" x2="200.1" y2="686.3" stroke-opacity="0.5"/><line x1="190.2" y1="626.1" x2="299.2" y2="589.2"/><line x1="190.2" y1="626.1" x2="200.1" y2="686.3"/><line x1="190.2" y1="626.1" x2="292.7" y2="711.5" stroke-opacity="0.5"/><line x1="299.2" y1="589.2" x2="388.5" y2="590.6"/><line x1="299.2" y1="589.2" x2="292.7" y2="711.5"/><line x1="299.2" y1="589.2" x2="410.9" y2="685.0" stroke-opacity="0.5"/><line x1="388.5" y1="590.6" x2="527.7" y2="616.2"/><line x1="388.5" y1="590.6" x2="410.9" y2="685.0"/><line x1="388.5" y1="590.6" x2="483.1" y2="713.1" stroke-opacity="0.5"/><line x1="527.7" y1="616.2" x2="594.3" y2="596.1"/><line x1="527.7" y1="616.2" x2="483.1" y2="713.1"/><line x1="527.7" y1="616.2" x2="628.1" y2="731.8" stroke-opacity="0.5"/><line x1="594.3" y1="596.1" x2="738.1" y2="634.8"/><line x1="594.3" y1="596.1" x2="628.1" y2="731.8"/><line x1="594.3" y1="596.1" x2="687.8" y2="728.9" stroke-opacity="0.5"/><line x1="738.1" y1="634.8" x2="800.6" y2="628.3"/><line x1="738.1" y1="634.8" x2="687.8" y2="728.9"/><line x1="738.1" y1="634.8" x2="837.1" y2="731.5" stroke-opacity="0.5"/><line x1="800.6" y1="628.3" x2="891.1" y2="638.8"/><line x1="800.6" y1="628.3" x2="837.1" y2="731.5"/><line x1="800.6" y1="628.3" x2="954.4" y2="682.2" stroke-opacity="0.5"/><line x1="891.1" y1="638.8" x2="1016.2" y2="649.4"/><line x1="891.1" y1="638.8" x2="954.4" y2="682.2"/><line x1="891.1" y1="638.8" x2="1003.0" y2="735.9" stroke-opacity="0.5"/><line x1="1016.2" y1="649.4" x2="1097.6" y2="599.9"/><line x1="1016.2" y1="649.4" x2="1003.0" y2="735.9"/><line x1="1016.2" y1="649.4" x2="1147.9" y2="709.7" stroke-opacity="0.5"/><line x1="1097.6" y1="599.9" x2="1225.9" y2="642.0"/><line x1="1097.6" y1="599.9" x2="1147.9" y2="709.7"/><line x1="1097.6" y1="599.9" x2="1260.3" y2="729.3" stroke-opacity="0.5"/><line x1="1225.9" y1="642.0" x2="1358.1" y2="634.3"/><line x1="1225.9" y1="642.0" x2="1260.3" y2="729.3"/><line x1="1225.9" y1="642.0" x2="1371.4" y2="731.2" stroke-opacity="0.5"/><line x1="1358.1" y1="634.3" x2="1440.0" y2="614.4"/><line x1="1358.1" y1="634.3" x2="1371.4" y2="731.2"/><line x1="1358.1" y1="634.3" x2="1440.0" y2="716.8" stroke-opacity="0.5"/><line x1="1440.0" y1="614.4" x2="1440.0" y2="716.8"/><line x1="0.0" y1="716.8" x2="81.8" y2="736.0"/><line x1="0.0" y1="716.8" x2="0.0" y2="819.2"/><line x1="0.0" y1="716.8" x2="91.8" y2="851.3" stroke-opacity="0.5"/><line x1="81.8" y1="736.0" x2="200.1" y2="686.3"/><line x1="81.8" y1="736.0" x2="91.8" y2="851.3"/><line x1="81.8" y1="736.0" x2="231.9" y2="855.0" stroke-opacity="0.5"/><line x1="200.1" y1="686.3" x2="292.7" y2="711.5"/><line x1="200.1" y1="686.3" x2="231.9" y2="855.0"/><line x1="200.1" y1="686.3" x2="313.4" y2="821.9" stroke-opacity="0.5"/><line x1="292.7" y1="711.5" x2="410.9" y2="685.0"/><line x1="292.7" y1="711.5" x2="313.4" y2="821.9"/><line x1="292.7" y1="711.5" x2="404.0" y2="812.1" stroke-opacity="0.5"/><line x1="410.9" y1="685.0" x2="483.1" y2="713.1"/><line x1="410.9" y1="685.0" x2="404.0" y2="812.1"/><line x1="410.9" y1="685.0" x2="511.4" y2="845.3" stroke-opacity="0.5"/><line x1="483.1" y1="713.1" x2="628.1" y2="731.8"/><line x1="483.1" y1="713.1" x2="511.4" y2="845.3"/><line x1="483.1" y1="713.1" x2="609.3" y2="810.1" stroke-opacity="0.5"/><line x1="628.1" y1="731.8" x2="687.8" y2="728.9"/><line x1="628.1" y1="731.8" x2="609.3" y2="810.1"/><line x1="628.1" y1="731.8" x2="689.0" y2="791.3" stroke-opacity="0.5"/><line x1="687.8" y1="728.9" x2="837.1" y2="731.5"/><line x1="687.8" y1="728.9" x2="689.0" y2="791.3"/><line x1="687.8" y1="728.9" x2="826.6" y2="827.2" stroke-opacity="0.5"/><line x1="837.1" y1="731.5" x2="954.4" y2="682.2"/><line x1="837.1" y1="731.5" x2="826.6" y2="827.2"/><line x1="837.1" y1="731.5" x2="952.2" y2="826.3" stroke-opacity="0.5"/><line x1="954.4" y1="682.2" x2="1003.0" y2="735.9"/><line x1="954.4" y1="682.2" x2="952.2" y2="826.3"/><line x1="954.4" y1="682.2" x2="1014.7" y2="805.7" stroke-opacity="0.5"/><line x1="1003.0" y1="735.9" x2="1147.9" y2="709.7"/><line x1="1003.0" y1="735.9" x2="1014.7" y2="805.7"/><line x1="1003.0" y1="735.9" x2="1106.1" y2="814.3" stroke-opacity="0.5"/><line x1="1147.9" y1="709.7" x2="1260.3" y2="729.3"/><line x1="1147.9" y1="709.7" x2="1106.1" y2="814.3"/><line x1="1147.9" y1="709.7" x2="1213.0" y2="849.1" stroke-opacity="0.5"/><line x1="1260.3" y1="729.3" x2="1371.4" y2="731.2"/><line x1="1260.3" y1="729.3" x2="1213.0" y2="849.1"/><line x1="1260.3" y1="729.3" x2="1335.1" y2="837.2" stroke-opacity="0.5"/><line x1="1371.4" y1="731.2" x2="1440.0" y2="716.8"/><line x1="1371.4" y1="731.2" x2="1335.1" y2="837.2"/><line x1="1371.4" y1="731.2" x2="1440.0" y2="819.2" stroke-opacity="0.5"/><line x1="1440.0" y1="716.8" x2="1440.0" y2="819.2"/><line x1="0.0" y1="819.2" x2="91.8" y2="851.3"/><line x1="0.0" y1="819.2" x2="0.0" y2="921.6"/><line x1="0.0" y1="819.2" x2="105.3" y2="912.4" stroke-opacity="0.5"/><line x1="91.8" y1="851.3" x2="231.9" y2="855.0"/><line x1="91.8" y1="851.3" x2="105.3" y2="912.4"/><line x1="91.8" y1="851.3" x2="237.3" y2="897.9" stroke-opacity="0.5"/><line x1="231.9" y1="855.0" x2="313.4" y2="821.9"/><line x1="231.9" y1="855.0" x2="237.3" y2="897.9"/><line x1="231.9" y1="855.0" x2="274.4" y2="941.8" stroke-opacity="0.5"/><line x1="313.4" y1="821.9" x2="404.0" y2="812.1"/><line x1="313.4" y1="821.9" x2="274.4" y2="941.8"/><line x1="313.4" y1="821.9" x2="436.0" y2="949.8" stroke-opacity="0.5"/><line x1="404.0" y1="812.1" x2="511.4" y2="845.3"/><line x1="404.0" y1="812.1" x2="436.0" y2="949.8"/><line x1="404.0" y1="812.1" x2="527.3" y2="922.3" stroke-opacity="0.5"/><line x1="511.4" y1="845.3" x2="609.3" y2="810.1"/><line x1="511.4" y1="845.3" x2="527.3" y2="922.3"/><line x1="511.4" y1="845.3" x2="619.6" y2="930.1" stroke-opacity="0.5"/><line x1="609.3" y1="810.1" x2="689.0" y2="791.3"/><line x1="609.3" y1="810.1" x2="619.6" y2="930.1"/><line x1="609.3" y1="810.1" x2="710.3" y2="926.0" stroke-opacity="0.5"/><line x1="689.0" y1="791.3" x2="826.6" y2="827.2"/><line x1="689.0" y1="791.3" x2="710.3" y2="926.0"/><line x1="689.0" y1="791.3" x2="835.1" y2="918.0" stroke-opacity="0.5"/><line x1="826.6" y1="827.2" x2="952.2" y2="826.3"/><line x1="826.6" y1="827.2" x2="835.1" y2="918.0"/><line x1="826.6" y1="827.2" x2="938.2" y2="954.0" stroke-opacity="0.5"/><line x1="952.2" y1="826.3" x2="1014.7" y2="805.7"/><line x1="952.2" y1="826.3" x2="938.2" y2="954.0"/><line x1="952.2" y1="826.3" x2="1056.2" y2="934.3" stroke-opacity="0.5"/><line x1="1014.7" y1="805.7" x2="1106.1" y2="814.3"/><line x1="1014.7" y1="805.7" x2="1056.2" y2="934.3"/><line x1="1014.7" y1="805.7" x2="1139.0" y2="903.4" stroke-opacity="0.5"/><line x1="1106.1" y1="814.3" x2="1213.0" y2="849.1"/><line x1="1106.1" y1="814.3" x2="1139.0" y2="903.4"/><line x1="1106.1" y1="814.3" x2="1205.6" y2="900.9" stroke-opacity="0.5"/><line x1="1213.0" y1="849.1" x2="1335.1" y2="837.2"/><line x1="1213.0" y1="849.1" x2="1205.6" y2="900.9"/><line x1="1213.0" y1="849.1" x2="1305.8" y2="913.3" stroke-opacity="0.5"/><line x1="1335.1" y1="837.2" x2="1440.0" y2="819.2"/><line x1="1335.1" y1="837.2" x2="1305.8" y2="913.3"/><line x1="1335.1" y1="837.2" x2="1440.0" y2="921.6" stroke-opacity="0.5"/><line x1="1440.0" y1="819.2" x2="1440.0" y2="921.6"/><line x1="0.0" y1="921.6" x2="105.3" y2="912.4"/><line x1="0.0" y1="921.6" x2="0.0" y2="1024.0"/><line x1="0.0" y1="921.6" x2="102.9" y2="1024.0" stroke-opacity="0.5"/><line x1="105.3" y1="912.4" x2="237.3" y2="897.9"/><line x1="105.3" y1="912.4" x2="102.9" y2="1024.0"/><line x1="105.3" y1="912.4" x2="205.7" y2="1024.0" stroke-opacity="0.5"/><line x1="237.3" y1="897.9" x2="274.4" y2="941.8"/><line x1="237.3" y1="897.9" x2="205.7" y2="1024.0"/><line x1="237.3" y1="897.9" x2="308.6" y2="1024.0" stroke-opacity="0.5"/><line x1="274.4" y1="941.8" x2="436.0" y2="949.8"/><line x1="274.4" y1="941.8" x2="308.6" y2="1024.0"/><line x1="274.4" y1="941.8" x2="411.4" y2="1024.0" stroke-opacity="0.5"/><line x1="436.0" y1="949.8" x2="527.3" y2="922.3"/><line x1="436.0" y1="949.8" x2="411.4" y2="1024.0"/><line x1="436.0" y1="949.8" x2="514.3" y2="1024.0" stroke-opacity="0.5"/><line x1="527.3" y1="922.3" x2="619.6" y2="930.1"/><line x1="527.3" y1="922.3" x2="514.3" y2="1024.0"/><line x1="527.3" y1="922.3" x2="617.1" y2="1024.0" stroke-opacity="0.5"/><line x1="619.6" y1="930.1" x2="710.3" y2="926.0"/><line x1="619.6" y1="930.1" x2="617.1" y2="1024.0"/><line x1="619.6" y1="930.1" x2="720.0" y2="1024.0" stroke-opacity="0.5"/><line x1="710.3" y1="926.0" x2="835.1" y2="918.0"/><line x1="710.3" y1="926.0" x2="720.0" y2="1024.0"/><line x1="710.3" y1="926.0" x2="822.9" y2="1024.0" stroke-opacity="0.5"/><line x1="835.1" y1="918.0" x2="938.2" y2="954.0"/><line x1="835.1" y1="918.0" x2="822.9" y2="1024.0"/><line x1="835.1" y1="918.0" x2="925.7" y2="1024.0" stroke-opacity="0.5"/><line x1="938.2" y1="954.0" x2="1056.2" y2="934.3"/><line x1="938.2" y1="954.0" x2="925.7" y2="1024.0"/><line x1="938.2" y1="954.0" x2="1028.6" y2="1024.0" stroke-opacity="0.5"/><line x1="1056.2" y1="934.3" x2="1139.0" y2="903.4"/><line x1="1056.2" y1="934.3" x2="1028.6" y2="1024.0"/><line x1="1056.2" y1="934.3" x2="1131.4" y2="1024.0" stroke-opacity="0.5"/><line x1="1139.0" y1="903.4" x2="1205.6" y2="900.9"/><line x1="1139.0" y1="903.4" x2="1131.4" y2="1024.0"/><line x1="1139.0" y1="903.4" x2="1234.3" y2="1024.0" stroke-opacity="0.5"/><line x1="1205.6" y1="900.9" x2="1305.8" y2="913.3"/><line x1="1205.6" y1="900.9" x2="1234.3" y2="1024.0"/><line x1="1205.6" y1="900.9" x2="1337.1" y2="1024.0" stroke-opacity="0.5"/><line x1="1305.8" y1="913.3" x2="1440.0" y2="921.6"/><line x1="1305.8" y1="913.3" x2="1337.1" y2="1024.0"/><line x1="1305.8" y1="913.3" x2="1440.0" y2="1024.0" stroke-opacity="0.5"/><line x1="1440.0" y1="921.6" x2="1440.0" y2="1024.0"/><line x1="0.0" y1="1024.0" x2="102.9" y2="1024.0"/><line x1="102.9" y1="1024.0" x2="205.7" y2="1024.0"/><line x1="205.7" y1="1024.0" x2="308.6" y2="1024.0"/><line x1="308.6" y1="1024.0" x2="411.4" y2="1024.0"/><line x1="411.4" y1="1024.0" x2="514.3" y2="1024.0"/><line x1="514.3" y1="1024.0" x2="617.1" y2="1024.0"/><line x1="617.1" y1="1024.0" x2="720.0" y2="1024.0"/><line x1="720.0" y1="1024.0" x2="822.9" y2="1024.0"/><line x1="822.9" y1="1024.0" x2="925.7" y2="1024.0"/><line x1="925.7" y1="1024.0" x2="1028.6" y2="1024.0"/><line x1="1028.6" y1="1024.0" x2="1131.4" y2="1024.0"/><line x1="1131.4" y1="1024.0" x2="1234.3" y2="1024.0"/><line x1="1234.3" y1="1024.0" x2="1337.1" y2="1024.0"/><line x1="1337.1" y1="1024.0" x2="1440.0" y2="1024.0"/></g>
<g><circle cx="0.0" cy="0.0" r="1.8" fill="#c3c9d1"/><circle cx="102.9" cy="0.0" r="1.8" fill="#c3c9d1"/><circle cx="205.7" cy="0.0" r="1.8" fill="#c3c9d1"/><circle cx="308.6" cy="0.0" r="1.8" fill="#c3c9d1"/><circle cx="411.4" cy="0.0" r="1.8" fill="#c3c9d1"/><circle cx="514.3" cy="0.0" r="1.8" fill="#c3c9d1"/><circle cx="617.1" cy="0.0" r="1.8" fill="#c3c9d1"/><circle cx="720.0" cy="0.0" r="1.8" fill="#c3c9d1"/><circle cx="822.9" cy="0.0" r="1.8" fill="#c3c9d1"/><circle cx="925.7" cy="0.0" r="1.8" fill="#c3c9d1"/><circle cx="1028.6" cy="0.0" r="1.8" fill="#c3c9d1"/><circle cx="1131.4" cy="0.0" r="1.8" fill="#c3c9d1"/><circle cx="1234.3" cy="0.0" r="2.6" fill="#e63946" fill-opacity="0.55"/><circle cx="1234.3" cy="0.0" r="5" fill="none" stroke="#e63946" stroke-opacity="0.18" stroke-width="0.8"/><circle cx="1337.1" cy="0.0" r="1.8" fill="#c3c9d1"/><circle cx="1440.0" cy="0.0" r="1.8" fill="#c3c9d1"/><circle cx="0.0" cy="102.4" r="1.8" fill="#c3c9d1"/><circle cx="86.0" cy="99.0" r="1.8" fill="#c3c9d1"/><circle cx="236.3" cy="86.0" r="1.8" fill="#c3c9d1"/><circle cx="338.1" cy="137.5" r="1.8" fill="#c3c9d1"/><circle cx="422.5" cy="94.6" r="1.8" fill="#c3c9d1"/><circle cx="549.0" cy="89.9" r="1.8" fill="#c3c9d1"/><circle cx="594.2" cy="78.4" r="1.8" fill="#c3c9d1"/><circle cx="686.6" cy="122.4" r="2.6" fill="#e63946" fill-opacity="0.55"/><circle cx="686.6" cy="122.4" r="5" fill="none" stroke="#e63946" stroke-opacity="0.18" stroke-width="0.8"/><circle cx="856.9" cy="95.4" r="1.8" fill="#c3c9d1"/><circle cx="891.5" cy="85.0" r="1.8" fill="#c3c9d1"/><circle cx="1016.3" cy="108.9" r="1.8" fill="#c3c9d1"/><circle cx="1117.5" cy="68.0" r="1.8" fill="#c3c9d1"/><circle cx="1251.1" cy="110.1" r="1.8" fill="#c3c9d1"/><circle cx="1317.9" cy="127.8" r="1.8" fill="#c3c9d1"/><circle cx="1440.0" cy="102.4" r="1.8" fill="#c3c9d1"/><circle cx="0.0" cy="204.8" r="1.8" fill="#c3c9d1"/><circle cx="94.0" cy="169.6" r="1.8" fill="#c3c9d1"/><circle cx="199.9" cy="178.4" r="1.8" fill="#c3c9d1"/><circle cx="297.5" cy="218.7" r="1.8" fill="#c3c9d1"/><circle cx="425.4" cy="185.2" r="1.8" fill="#c3c9d1"/><circle cx="536.0" cy="227.0" r="1.8" fill="#c3c9d1"/><circle cx="587.3" cy="172.5" r="1.8" fill="#c3c9d1"/><circle cx="726.3" cy="197.5" r="1.8" fill="#c3c9d1"/><circle cx="821.1" cy="211.7" r="1.8" fill="#c3c9d1"/><circle cx="908.5" cy="238.6" r="1.8" fill="#c3c9d1"/><circle cx="1043.8" cy="240.3" r="1.8" fill="#c3c9d1"/><circle cx="1163.7" cy="175.2" r="1.8" fill="#c3c9d1"/><circle cx="1199.8" cy="229.6" r="1.8" fill="#c3c9d1"/><circle cx="1308.2" cy="203.8" r="2.6" fill="#e63946" fill-opacity="0.55"/><circle cx="1308.2" cy="203.8" r="5" fill="none" stroke="#e63946" stroke-opacity="0.18" stroke-width="0.8"/><circle cx="1440.0" cy="204.8" r="1.8" fill="#c3c9d1"/><circle cx="0.0" cy="307.2" r="1.8" fill="#c3c9d1"/><circle cx="118.9" cy="309.2" r="1.8" fill="#c3c9d1"/><circle cx="183.9" cy="336.3" r="1.8" fill="#c3c9d1"/><circle cx="286.9" cy="308.1" r="1.8" fill="#c3c9d1"/><circle cx="424.2" cy="285.5" r="1.8" fill="#c3c9d1"/><circle cx="496.3" cy="302.0" r="1.8" fill="#c3c9d1"/><circle cx="601.9" cy="337.7" r="1.8" fill="#c3c9d1"/><circle cx="713.9" cy="314.1" r="1.8" fill="#c3c9d1"/><circle cx="822.9" cy="318.0" r="1.8" fill="#c3c9d1"/><circle cx="959.1" cy="328.7" r="1.8" fill="#c3c9d1"/><circle cx="1009.8" cy="273.6" r="1.8" fill="#c3c9d1"/><circle cx="1154.1" cy="306.9" r="1.8" fill="#c3c9d1"/><circle cx="1268.9" cy="304.2" r="1.8" fill="#c3c9d1"/><circle cx="1356.6" cy="329.4" r="2.6" fill="#e63946" fill-opacity="0.55"/><circle cx="1356.6" cy="329.4" r="5" fill="none" stroke="#e63946" stroke-opacity="0.18" stroke-width="0.8"/><circle cx="1440.0" cy="307.2" r="1.8" fill="#c3c9d1"/><circle cx="0.0" cy="409.6" r="1.8" fill="#c3c9d1"/><circle cx="119.9" cy="417.1" r="1.8" fill="#c3c9d1"/><circle cx="187.9" cy="379.7" r="1.8" fill="#c3c9d1"/><circle cx="317.0" cy="405.5" r="2.6" fill="#e63946" fill-opacity="0.55"/><circle cx="317.0" cy="405.5" r="5" fill="none" stroke="#e63946" stroke-opacity="0.18" stroke-width="0.8"/><circle cx="419.2" cy="400.1" r="1.8" fill="#c3c9d1"/><circle cx="543.5" cy="409.9" r="1.8" fill="#c3c9d1"/><circle cx="640.2" cy="387.2" r="2.6" fill="#e63946" fill-opacity="0.55"/><circle cx="640.2" cy="387.2" r="5" fill="none" stroke="#e63946" stroke-opacity="0.18" stroke-width="0.8"/><circle cx="754.7" cy="392.1" r="1.8" fill="#c3c9d1"/><circle cx="790.3" cy="400.9" r="1.8" fill="#c3c9d1"/><circle cx="912.1" cy="427.3" r="1.8" fill="#c3c9d1"/><circle cx="1047.6" cy="427.3" r="1.8" fill="#c3c9d1"/><circle cx="1161.8" cy="389.1" r="1.8" fill="#c3c9d1"/><circle cx="1204.9" cy="381.4" r="1.8" fill="#c3c9d1"/><circle cx="1312.8" cy="416.5" r="1.8" fill="#c3c9d1"/><circle cx="1440.0" cy="409.6" r="1.8" fill="#c3c9d1"/><circle cx="0.0" cy="512.0" r="2.6" fill="#e63946" fill-opacity="0.55"/><circle cx="0.0" cy="512.0" r="5" fill="none" stroke="#e63946" stroke-opacity="0.18" stroke-width="0.8"/><circle cx="100.4" cy="540.5" r="2.6" fill="#e63946" fill-opacity="0.55"/><circle cx="100.4" cy="540.5" r="5" fill="none" stroke="#e63946" stroke-opacity="0.18" stroke-width="0.8"/><circle cx="180.3" cy="478.3" r="1.8" fill="#c3c9d1"/><circle cx="343.2" cy="476.7" r="1.8" fill="#c3c9d1"/><circle cx="384.2" cy="532.9" r="1.8" fill="#c3c9d1"/><circle cx="482.8" cy="515.3" r="1.8" fill="#c3c9d1"/><circle cx="619.8" cy="543.2" r="1.8" fill="#c3c9d1"/><circle cx="754.9" cy="516.8" r="1.8" fill="#c3c9d1"/><circle cx="803.5" cy="534.7" r="1.8" fill="#c3c9d1"/><circle cx="932.3" cy="490.5" r="1.8" fill="#c3c9d1"/><circle cx="1041.3" cy="532.1" r="1.8" fill="#c3c9d1"/><circle cx="1107.6" cy="531.3" r="1.8" fill="#c3c9d1"/><circle cx="1255.9" cy="509.3" r="1.8" fill="#c3c9d1"/><circle cx="1369.7" cy="515.5" r="1.8" fill="#c3c9d1"/><circle cx="1440.0" cy="512.0" r="1.8" fill="#c3c9d1"/><circle cx="0.0" cy="614.4" r="1.8" fill="#c3c9d1"/><circle cx="133.8" cy="626.0" r="1.8" fill="#c3c9d1"/><circle cx="190.2" cy="626.1" r="1.8" fill="#c3c9d1"/><circle cx="299.2" cy="589.2" r="1.8" fill="#c3c9d1"/><circle cx="388.5" cy="590.6" r="1.8" fill="#c3c9d1"/><circle cx="527.7" cy="616.2" r="1.8" fill="#c3c9d1"/><circle cx="594.3" cy="596.1" r="1.8" fill="#c3c9d1"/><circle cx="738.1" cy="634.8" r="1.8" fill="#c3c9d1"/><circle cx="800.6" cy="628.3" r="1.8" fill="#c3c9d1"/><circle cx="891.1" cy="638.8" r="1.8" fill="#c3c9d1"/><circle cx="1016.2" cy="649.4" r="1.8" fill="#c3c9d1"/><circle cx="1097.6" cy="599.9" r="1.8" fill="#c3c9d1"/><circle cx="1225.9" cy="642.0" r="1.8" fill="#c3c9d1"/><circle cx="1358.1" cy="634.3" r="1.8" fill="#c3c9d1"/><circle cx="1440.0" cy="614.4" r="1.8" fill="#c3c9d1"/><circle cx="0.0" cy="716.8" r="1.8" fill="#c3c9d1"/><circle cx="81.8" cy="736.0" r="1.8" fill="#c3c9d1"/><circle cx="200.1" cy="686.3" r="1.8" fill="#c3c9d1"/><circle cx="292.7" cy="711.5" r="1.8" fill="#c3c9d1"/><circle cx="410.9" cy="685.0" r="1.8" fill="#c3c9d1"/><circle cx="483.1" cy="713.1" r="1.8" fill="#c3c9d1"/><circle cx="628.1" cy="731.8" r="1.8" fill="#c3c9d1"/><circle cx="687.8" cy="728.9" r="1.8" fill="#c3c9d1"/><circle cx="837.1" cy="731.5" r="1.8" fill="#c3c9d1"/><circle cx="954.4" cy="682.2" r="1.8" fill="#c3c9d1"/><circle cx="1003.0" cy="735.9" r="1.8" fill="#c3c9d1"/><circle cx="1147.9" cy="709.7" r="1.8" fill="#c3c9d1"/><circle cx="1260.3" cy="729.3" r="1.8" fill="#c3c9d1"/><circle cx="1371.4" cy="731.2" r="1.8" fill="#c3c9d1"/><circle cx="1440.0" cy="716.8" r="1.8" fill="#c3c9d1"/><circle cx="0.0" cy="819.2" r="1.8" fill="#c3c9d1"/><circle cx="91.8" cy="851.3" r="1.8" fill="#c3c9d1"/><circle cx="231.9" cy="855.0" r="2.6" fill="#e63946" fill-opacity="0.55"/><circle cx="231.9" cy="855.0" r="5" fill="none" stroke="#e63946" stroke-opacity="0.18" stroke-width="0.8"/><circle cx="313.4" cy="821.9" r="1.8" fill="#c3c9d1"/><circle cx="404.0" cy="812.1" r="1.8" fill="#c3c9d1"/><circle cx="511.4" cy="845.3" r="1.8" fill="#c3c9d1"/><circle cx="609.3" cy="810.1" r="1.8" fill="#c3c9d1"/><circle cx="689.0" cy="791.3" r="1.8" fill="#c3c9d1"/><circle cx="826.6" cy="827.2" r="1.8" fill="#c3c9d1"/><circle cx="952.2" cy="826.3" r="1.8" fill="#c3c9d1"/><circle cx="1014.7" cy="805.7" r="2.6" fill="#e63946" fill-opacity="0.55"/><circle cx="1014.7" cy="805.7" r="5" fill="none" stroke="#e63946" stroke-opacity="0.18" stroke-width="0.8"/><circle cx="1106.1" cy="814.3" r="1.8" fill="#c3c9d1"/><circle cx="1213.0" cy="849.1" r="1.8" fill="#c3c9d1"/><circle cx="1335.1" cy="837.2" r="1.8" fill="#c3c9d1"/><circle cx="1440.0" cy="819.2" r="1.8" fill="#c3c9d1"/><circle cx="0.0" cy="921.6" r="1.8" fill="#c3c9d1"/><circle cx="105.3" cy="912.4" r="1.8" fill="#c3c9d1"/><circle cx="237.3" cy="897.9" r="1.8" fill="#c3c9d1"/><circle cx="274.4" cy="941.8" r="1.8" fill="#c3c9d1"/><circle cx="436.0" cy="949.8" r="1.8" fill="#c3c9d1"/><circle cx="527.3" cy="922.3" r="1.8" fill="#c3c9d1"/><circle cx="619.6" cy="930.1" r="2.6" fill="#e63946" fill-opacity="0.55"/><circle cx="619.6" cy="930.1" r="5" fill="none" stroke="#e63946" stroke-opacity="0.18" stroke-width="0.8"/><circle cx="710.3" cy="926.0" r="1.8" fill="#c3c9d1"/><circle cx="835.1" cy="918.0" r="1.8" fill="#c3c9d1"/><circle cx="938.2" cy="954.0" r="1.8" fill="#c3c9d1"/><circle cx="1056.2" cy="934.3" r="1.8" fill="#c3c9d1"/><circle cx="1139.0" cy="903.4" r="1.8" fill="#c3c9d1"/><circle cx="1205.6" cy="900.9" r="2.6" fill="#e63946" fill-opacity="0.55"/><circle cx="1205.6" cy="900.9" r="5" fill="none" stroke="#e63946" stroke-opacity="0.18" stroke-width="0.8"/><circle cx="1305.8" cy="913.3" r="1.8" fill="#c3c9d1"/><circle cx="1440.0" cy="921.6" r="1.8" fill="#c3c9d1"/><circle cx="0.0" cy="1024.0" r="1.8" fill="#c3c9d1"/><circle cx="102.9" cy="1024.0" r="1.8" fill="#c3c9d1"/><circle cx="205.7" cy="1024.0" r="1.8" fill="#c3c9d1"/><circle cx="308.6" cy="1024.0" r="1.8" fill="#c3c9d1"/><circle cx="411.4" cy="1024.0" r="1.8" fill="#c3c9d1"/><circle cx="514.3" cy="1024.0" r="1.8" fill="#c3c9d1"/><circle cx="617.1" cy="1024.0" r="1.8" fill="#c3c9d1"/><circle cx="720.0" cy="1024.0" r="1.8" fill="#c3c9d1"/><circle cx="822.9" cy="1024.0" r="2.6" fill="#e63946" fill-opacity="0.55"/><circle cx="822.9" cy="1024.0" r="5" fill="none" stroke="#e63946" stroke-opacity="0.18" stroke-width="0.8"/><circle cx="925.7" cy="1024.0" r="1.8" fill="#c3c9d1"/><circle cx="1028.6" cy="1024.0" r="1.8" fill="#c3c9d1"/><circle cx="1131.4" cy="1024.0" r="1.8" fill="#c3c9d1"/><circle cx="1234.3" cy="1024.0" r="1.8" fill="#c3c9d1"/><circle cx="1337.1" cy="1024.0" r="1.8" fill="#c3c9d1"/><circle cx="1440.0" cy="1024.0" r="1.8" fill="#c3c9d1"/></g>
</svg>