<svg xmlns="http://www.w3.org/2000/svg" width="120" height="120" viewBox="0 0 120 120">
  <g fill="none" stroke="#d4d9df" stroke-width="1">
    <path d="M0 0 L60 60 L120 0 M0 120 L60 60 L120 120 M60 0 L60 120 M0 60 L120 60"/>
    <path d="M0 0 L120 120 M120 0 L0 120" stroke="#dde1e7" stroke-width="0.6" opacity="0.6"/>
  </g>
  <g fill="#c3c9d1">
    <circle cx="60" cy="60" r="2.4"/>
    <circle cx="0" cy="0" r="1.7"/>
    <circle cx="120" cy="0" r="1.7"/>
    <circle cx="0" cy="120" r="1.7"/>
    <circle cx="120" cy="120" r="1.7"/>
    <circle cx="60" cy="0" r="1.4"/>
    <circle cx="60" cy="120" r="1.4"/>
    <circle cx="0" cy="60" r="1.4"/>
    <circle cx="120" cy="60" r="1.4"/>
  </g>
  <circle cx="60" cy="60" r="4.2" fill="none" stroke="#e63946" stroke-width="0.7" opacity="0.18"/>
  <circle cx="0" cy="0" r="3.2" fill="none" stroke="#e63946" stroke-width="0.6" opacity="0.12"/>
  <circle cx="120" cy="120" r="3.2" fill="none" stroke="#e63946" stroke-width="0.6" opacity="0.12"/>
</svg>
